<svg width="38" height="37" viewBox="0 0 38 37" fill="none" xmlns="http://www.w3.org/2000/svg">
<path d="M19.4946 37C9.28516 37 0.994629 28.7095 0.994629 18.5C0.994629 8.29053 9.28516 0 19.4946 0C29.7041 0 37.9946 8.29053 37.9946 18.5C37.9946 28.7095 29.7041 37 19.4946 37Z" fill="#EDEDED"/>
<path d="M18.8439 10.1743C16.4055 10.1743 14.3547 11.8202 13.7415 14.0569C13.6217 14.5 13.5513 14.9712 13.5513 15.4495C13.5513 15.4636 13.5513 15.4706 13.5513 15.4847C13.5513 15.97 13.6217 16.4342 13.7486 16.8774C13.8895 17.3697 14.101 17.841 14.3688 18.263C15.3061 19.7401 16.9552 20.7248 18.8368 20.7248H22.4803C22.4803 20.2043 22.3182 19.719 22.0363 19.318H18.8368C17.8079 19.318 16.8776 18.9171 16.1799 18.263C15.7642 17.8761 15.44 17.3908 15.2285 16.8563C15.0594 16.4202 14.9607 15.9489 14.9607 15.4495C14.9607 14.9501 15.0524 14.4789 15.2285 14.0428C15.7923 12.6009 17.1948 11.581 18.8368 11.581H28.5904V15.4495C28.5904 16.9547 27.7236 18.263 26.455 18.9031C26.5889 19.3602 26.6665 19.8456 26.6947 20.3379C28.6327 19.5572 29.9999 17.6651 29.9999 15.4495V10.1743H18.8439Z" fill="#02002D"/>
<path d="M25.1022 19.2969C24.9612 18.8046 24.7498 18.3333 24.482 17.9113C23.5447 16.4342 21.8956 15.4495 20.0139 15.4495H16.3704C16.3704 15.97 16.5325 16.4553 16.8144 16.8563H20.0139C21.0429 16.8563 21.9731 17.2572 22.6708 17.9113C23.0866 18.2982 23.4108 18.7835 23.6222 19.318C23.7913 19.7541 23.89 20.2254 23.89 20.7248C23.89 21.2242 23.7984 21.6954 23.6222 22.1315C23.0584 23.5734 21.656 24.5933 20.0139 24.5933H10.2674V20.7248C10.2674 19.2196 11.1342 17.9113 12.4027 17.2712C12.2688 16.8141 12.1913 16.3287 12.1631 15.8364C10.2251 16.6171 8.85791 18.5092 8.85791 20.7248V26H20.0139C22.4523 26 24.4961 24.3541 25.1092 22.1174C25.229 21.6743 25.2995 21.2031 25.2995 20.7248C25.2995 20.7107 25.2995 20.7037 25.2995 20.6896C25.2995 20.2113 25.229 19.7401 25.1022 19.2969Z" fill="#02002D"/>
</svg>
