<svg width="18" height="14" viewBox="0 0 18 14" fill="none" xmlns="http://www.w3.org/2000/svg">
<path d="M1.80001 0H16.2001C16.6774 0 17.1353 0.184374 17.4729 0.512563C17.8104 0.840752 18.0001 1.28587 18.0001 1.75V12.25C18.0001 12.7141 17.8104 13.1592 17.4729 13.4874C17.1353 13.8156 16.6774 14 16.2001 14H1.80001C0.801003 14 0 13.2125 0 12.25V1.75C0 0.77875 0.801003 0 1.80001 0ZM9.00003 6.125L16.2001 1.75H1.80001L9.00003 6.125ZM1.80001 12.25H16.2001V3.82375L9.00003 8.19L1.80001 3.82375V12.25Z" fill="#D1D1D6"/>
</svg>
