<svg width="170" height="39" viewBox="0 0 170 39" fill="none" xmlns="http://www.w3.org/2000/svg">
<path d="M15.2871 11.3605C18.6963 12.1221 21.362 13.1739 23.2842 14.5158C25.2427 15.8215 26.2219 17.8888 26.2219 20.7177C26.2219 23.6554 25.152 25.904 23.0122 27.4636C20.9086 29.0231 17.9165 29.8029 14.0358 29.8029C9.32093 29.8029 5.83918 28.878 3.59055 27.0283C1.34192 25.1787 0.145073 22.7306 0 19.684H8.16035C8.41422 22.4404 10.2639 23.8186 13.7094 23.8186C14.9425 23.8186 15.8855 23.6191 16.5383 23.2202C17.1911 22.8212 17.5175 22.2228 17.5175 21.4249C17.5175 20.4457 17.0823 19.7384 16.2119 19.3032C15.3414 18.868 13.8182 18.4328 11.6421 17.9976L10.4996 17.7255C7.48938 17.0727 5.07755 16.1297 3.26414 14.8966C1.45073 13.6635 0.544023 11.7413 0.544023 9.12998C0.544023 7.42538 1.01551 5.90212 1.95848 4.56019C2.93773 3.21827 4.33405 2.16649 6.14746 1.40486C7.99714 0.606957 10.1914 0.208008 12.7301 0.208008C16.901 0.208008 20.0201 1.09658 22.0873 2.87372C24.1546 4.65086 25.2608 6.89949 25.4059 9.61961H17.2455C17.1005 8.45902 16.6834 7.60672 15.9943 7.0627C15.3415 6.48241 14.3259 6.19226 12.9477 6.19226C11.7509 6.19226 10.8261 6.39174 10.1732 6.79069C9.55667 7.18964 9.24839 7.73366 9.24839 8.42276C9.24839 9.18439 9.53854 9.72841 10.1188 10.0548C10.7354 10.345 11.9322 10.6714 13.7094 11.0341L15.2871 11.3605Z" fill="#02002D"/>
<path d="M29.1001 1.07844V38.5616H37.8045V26.1579H37.9133C38.5661 27.0646 39.6179 27.8988 41.0686 28.6604C42.5194 29.422 44.1514 29.8029 45.9648 29.8029C48.4311 29.8029 50.5709 29.2044 52.3843 28.0076C54.1977 26.8107 55.5941 25.1061 56.5733 22.8938C57.5888 20.6451 58.0966 18.0157 58.0966 15.0054C58.0966 11.9952 57.5888 9.38386 56.5733 7.1715C55.5941 4.92287 54.1977 3.20013 52.3843 2.00328C50.5709 0.806432 48.4311 0.208008 45.9648 0.208008C44.1514 0.208008 42.5194 0.588823 41.0686 1.35045C39.6179 2.11209 38.5661 2.94626 37.9133 3.85296H37.8045V1.07844H29.1001ZM43.68 23.2746C41.8665 23.2746 40.4521 22.5674 39.4366 21.1529C38.4573 19.7384 37.9677 17.6893 37.9677 15.0054C37.9677 12.3216 38.4573 10.2724 39.4366 8.85797C40.4521 7.44351 41.8665 6.73628 43.68 6.73628C45.4934 6.73628 46.8897 7.44351 47.8689 8.85797C48.8844 10.2724 49.3922 12.3216 49.3922 15.0054C49.3922 17.6893 48.8844 19.7384 47.8689 21.1529C46.8897 22.5674 45.4934 23.2746 43.68 23.2746Z" fill="#02002D"/>
<path d="M76.9087 0.588822C77.8517 0.588822 78.6496 0.661359 79.3024 0.806432V8.42276H79.1936C78.6496 8.31395 78.0874 8.25955 77.5071 8.25955C75.4398 8.25955 73.6627 8.93051 72.1757 10.2724C70.725 11.6144 69.9996 13.5184 69.9996 15.9847V28.9324H61.2953V1.07844H69.9996V5.64824H70.1084C70.7975 4.05244 71.7224 2.81932 72.8829 1.94888C74.0798 1.04217 75.4217 0.588822 76.9087 0.588822Z" fill="#02002D"/>
<path d="M108.887 1.07844V28.9324H100.183V24.9067H100.074C98.188 28.1708 95.1414 29.8029 90.9343 29.8029C88.1779 29.8029 85.9837 28.9324 84.3516 27.1916C82.7196 25.4507 81.9035 23.0207 81.9035 19.9016V1.07844H90.6079V17.1271C90.6079 19.1581 90.9524 20.6089 91.6415 21.4793C92.3669 22.3135 93.4731 22.7306 94.9601 22.7306C98.4418 22.7306 100.183 20.8809 100.183 17.1815V1.07844H108.887Z" fill="#02002D"/>
<path d="M131.155 11.4693C131.01 10.1274 130.538 9.00305 129.74 8.09634C128.979 7.18964 127.8 6.73628 126.204 6.73628C124.427 6.73628 123.049 7.46165 122.069 8.91238C121.09 10.3631 120.601 12.3941 120.601 15.0054C120.601 17.653 121.072 19.7022 122.015 21.1529C122.994 22.5674 124.391 23.2746 126.204 23.2746C129.142 23.2746 130.792 21.6607 131.155 18.4328H139.696C139.551 20.6451 138.916 22.6218 137.792 24.3626C136.667 26.0672 135.108 27.4092 133.113 28.3884C131.155 29.3314 128.87 29.8029 126.258 29.8029C123.357 29.8029 120.818 29.1863 118.642 27.9532C116.502 26.6838 114.834 24.9429 113.637 22.7306C112.476 20.4819 111.896 17.9069 111.896 15.0054C111.896 12.1402 112.476 9.58334 113.637 7.33471C114.798 5.08608 116.448 3.34521 118.588 2.11209C120.728 0.842701 123.212 0.208008 126.041 0.208008C129.994 0.208008 133.167 1.25979 135.561 3.36334C137.955 5.43063 139.333 8.13261 139.696 11.4693H131.155Z" fill="#02002D"/>
<path d="M155.964 23.2746C157.342 23.2746 158.43 23.0207 159.228 22.513C160.026 21.9689 160.588 21.298 160.915 20.5001H169.565C168.767 23.4015 167.244 25.6864 164.995 27.3548C162.746 28.9868 159.79 29.8029 156.127 29.8029C153.081 29.8029 150.433 29.1863 148.185 27.9532C145.972 26.6838 144.268 24.9429 143.071 22.7306C141.874 20.4819 141.276 17.9069 141.276 15.0054C141.276 12.1765 141.856 9.63774 143.016 7.38911C144.177 5.14048 145.845 3.38147 148.021 2.11209C150.198 0.842701 152.736 0.208008 155.638 0.208008C160.28 0.208008 163.834 1.74941 166.301 4.8322C168.767 7.915 170 12.0677 170 17.2903H149.98C149.98 19.14 150.56 20.6089 151.721 21.6969C152.881 22.7487 154.296 23.2746 155.964 23.2746ZM155.638 6.19226C153.933 6.19226 152.555 6.70002 151.503 7.71553C150.488 8.69477 149.98 10.1274 149.98 12.0133H161.296C161.296 10.1274 160.77 8.69477 159.718 7.71553C158.702 6.70002 157.342 6.19226 155.638 6.19226Z" fill="#02002D"/>
</svg>
