<svg width="44" height="23" viewBox="0 0 44 23" fill="none" xmlns="http://www.w3.org/2000/svg">
<g opacity="0.2">
<path d="M12.528 5.16009C12.528 6.92009 11.64 8.10409 9.864 8.71209V8.76009C10.84 8.92009 11.64 9.36809 12.264 10.1041C12.888 10.8241 13.2 11.7921 13.2 13.0081C13.2 14.5761 12.68 15.8001 11.64 16.6801C10.6 17.5601 9.184 18.0001 7.392 18.0001H0V0.840088H6.912C8.656 0.840088 10.024 1.23209 11.016 2.01609C12.024 2.78409 12.528 3.83209 12.528 5.16009ZM7.248 8.01609C8.4 8.01609 9.208 7.79209 9.672 7.34409C10.136 6.89609 10.368 6.24809 10.368 5.40009C10.368 4.58409 10.128 3.94409 9.648 3.48009C9.168 3.00009 8.448 2.76009 7.488 2.76009H2.16V8.01609H7.248ZM2.16 16.0801H7.608C9.896 16.0801 11.04 15.0561 11.04 13.0081C11.04 12.0801 10.768 11.3361 10.224 10.7761C9.696 10.2161 8.984 9.93609 8.088 9.93609H2.16V16.0801Z" fill="#02002D"/>
<path d="M17.1493 0.840088V18.0001H15.2293V0.840088H17.1493Z" fill="#02002D"/>
<path d="M25.1723 18.3361C26.3883 18.3361 27.4443 18.0641 28.3403 17.5201C29.2523 16.9761 29.9483 16.2161 30.4283 15.2401C30.9083 14.2641 31.1483 13.1441 31.1483 11.8801C31.1483 10.6161 30.9083 9.49609 30.4283 8.52009C29.9483 7.54409 29.2523 6.78409 28.3403 6.24009C27.4443 5.69609 26.3883 5.42409 25.1723 5.42409C23.9403 5.42409 22.8683 5.69609 21.9563 6.24009C21.0603 6.78409 20.3722 7.54409 19.8923 8.52009C19.4123 9.49609 19.1723 10.6161 19.1723 11.8801C19.1723 13.1441 19.4123 14.2641 19.8923 15.2401C20.3722 16.2161 21.0603 16.9761 21.9563 17.5201C22.8683 18.0641 23.9403 18.3361 25.1723 18.3361ZM25.1723 16.6561C23.8603 16.6561 22.8523 16.2081 22.1483 15.3121C21.4443 14.4161 21.0923 13.2721 21.0923 11.8801C21.0923 10.4881 21.4443 9.34409 22.1483 8.44809C22.8523 7.55209 23.8603 7.10409 25.1723 7.10409C26.4843 7.10409 27.4843 7.55209 28.1723 8.44809C28.8763 9.34409 29.2283 10.4881 29.2283 11.8801C29.2283 13.2721 28.8763 14.4161 28.1723 15.3121C27.4843 16.2081 26.4843 16.6561 25.1723 16.6561Z" fill="#02002D"/>
<path d="M43.719 5.76009V17.3281C43.719 18.9281 43.239 20.1441 42.279 20.9761C41.335 21.8241 40.007 22.2481 38.295 22.2481C37.207 22.2481 36.255 22.0721 35.439 21.7201C34.623 21.3841 33.983 20.9201 33.519 20.3281C33.071 19.7361 32.815 19.0881 32.751 18.3841H34.671C34.799 19.0561 35.143 19.5841 35.703 19.9681C36.279 20.3681 37.111 20.5681 38.199 20.5681C40.599 20.5681 41.799 19.4801 41.799 17.3041V15.4561H41.751C40.871 16.7361 39.575 17.3761 37.863 17.3761C36.823 17.3761 35.887 17.1521 35.055 16.7041C34.239 16.2561 33.591 15.5841 33.111 14.6881C32.631 13.7921 32.391 12.6961 32.391 11.4001C32.391 10.1041 32.631 9.00809 33.111 8.11209C33.591 7.21609 34.239 6.54409 35.055 6.09609C35.887 5.64809 36.823 5.42409 37.863 5.42409C39.511 5.42409 40.807 6.04009 41.751 7.27209H41.799V5.76009H43.719ZM38.103 15.6961C39.271 15.6961 40.175 15.3361 40.815 14.6161C41.471 13.8801 41.799 12.8081 41.799 11.4001C41.799 9.99209 41.471 8.92809 40.815 8.20809C40.175 7.47209 39.271 7.10409 38.103 7.10409C36.887 7.10409 35.951 7.50409 35.295 8.30409C34.639 9.10409 34.311 10.1361 34.311 11.4001C34.311 12.6641 34.639 13.6961 35.295 14.4961C35.951 15.2961 36.887 15.6961 38.103 15.6961Z" fill="#02002D"/>
</g>
</svg>
